<svg xmlns="http://www.w3.org/2000/svg" xmlns:xlink="http://www.w3.org/1999/xlink" width="360" zoomAndPan="magnify" viewBox="0 0 270 112.499997" height="150" preserveAspectRatio="xMidYMid meet" version="1.0"><defs><g/></defs><g fill="#ffffff" fill-opacity="1"><g transform="translate(22.741877, 80.641587)"><g><path d="M 55.546875 -68.324219 C 54.253906 -69.4375 52.679688 -70.175781 51.011719 -70.824219 C 46.847656 -72.582031 42.863281 -73.324219 38.421875 -72.214844 C 34.164062 -71.101562 30.089844 -68.878906 26.847656 -65.917969 C 24.625 -63.882812 20.738281 -60.457031 20.273438 -57.214844 L 20.921875 -58.140625 C 19.996094 -56.382812 19.347656 -54.621094 18.980469 -52.957031 C 18.886719 -52.957031 19.164062 -54.4375 19.257812 -54.4375 C 17.777344 -54.4375 18.238281 -48.789062 18.332031 -47.957031 C 18.515625 -44.160156 19.535156 -40.273438 21.015625 -36.753906 C 23.050781 -31.941406 25.273438 -27.21875 27.125 -22.40625 L 28.792969 -18.238281 C 28.976562 -17.589844 29.253906 -16.851562 29.535156 -16.203125 C 29.625 -16.203125 29.996094 -15.460938 29.996094 -15.554688 C 30.089844 -14.8125 30.273438 -14.257812 30.460938 -13.609375 C 30.273438 -14.074219 29.902344 -14.71875 29.902344 -15.089844 C 29.71875 -14.441406 30.273438 -13.609375 30.460938 -13.148438 C 30.644531 -12.21875 30.738281 -11.386719 30.738281 -10.460938 C 30.550781 -8.054688 29.71875 -5.738281 28.515625 -3.703125 C 26.109375 0.277344 22.125 3.519531 17.683594 4.90625 C 14.441406 5.832031 10.460938 5.832031 8.980469 2.316406 C 7.683594 -0.554688 8.238281 -4.074219 8.886719 -7.035156 C 9.257812 -8.703125 9.722656 -10.367188 10.460938 -11.941406 C 11.015625 -13.425781 13.980469 -17.40625 13.148438 -18.886719 C 11.109375 -22.496094 4.257812 -13.425781 3.332031 -11.941406 C -0.554688 -5.648438 -2.40625 4.628906 5.554688 8.703125 C 11.109375 11.480469 18.421875 11.015625 23.976562 8.796875 C 25.921875 8.054688 34.347656 4.535156 34.253906 1.757812 L 32.402344 3.054688 C 38.792969 -2.5 41.382812 -9.257812 38.882812 -17.589844 C 37.679688 -21.480469 35.457031 -24.625 33.328125 -28.050781 C 31.753906 -30.828125 31.292969 -33.515625 29.996094 -36.382812 C 31.753906 -32.867188 33.882812 -29.441406 35.734375 -25.921875 C 31.941406 -34.625 24.625 -44.996094 29.535156 -54.714844 C 31.753906 -59.066406 35.734375 -62.675781 40.085938 -64.808594 C 42.585938 -66.011719 45.550781 -67.027344 48.417969 -66.9375 C 51.84375 -66.660156 51.105469 -64.4375 51.105469 -62.121094 C 51.289062 -63.511719 52.125 -64.992188 50.734375 -66.378906 C 49.4375 -67.492188 47.308594 -67.121094 45.734375 -66.84375 C 42.125 -66.195312 38.792969 -64.714844 35.921875 -62.585938 C 37.957031 -64.160156 40.273438 -65.453125 42.679688 -66.289062 C 44.808594 -67.027344 47.957031 -67.953125 50.085938 -67.027344 C 55.363281 -64.621094 48.605469 -54.53125 46.105469 -51.105469 C 46.566406 -51.9375 47.308594 -53.511719 47.492188 -53.695312 C 46.199219 -53.789062 43.605469 -47.308594 42.957031 -46.9375 C 40.734375 -44.625 43.421875 -44.347656 45.273438 -45.457031 C 47.308594 -46.660156 48.976562 -48.605469 50.550781 -50.179688 C 52.679688 -52.402344 54.621094 -54.714844 56.289062 -57.214844 C 57.398438 -58.882812 59.4375 -61.566406 58.324219 -63.601562 C 57.585938 -65.363281 57.121094 -67.027344 55.546875 -68.324219 Z M 3.796875 6.664062 C -1.019531 0.648438 1.203125 -7.3125 5.554688 -13.238281 C 1.757812 -7.777344 0.183594 2.128906 3.796875 6.664062 Z M 27.683594 -47.214844 C 27.773438 -46.753906 27.683594 -46.289062 27.683594 -45.921875 Z M 27.683594 -47.214844 "/></g></g></g><g fill="#ffffff" fill-opacity="1"><g transform="translate(68.937693, 80.641587)"><g><path d="M 37.589844 -48.140625 C 37.496094 -49.4375 36.105469 -48.417969 35.367188 -48.417969 C 31.664062 -48.234375 27.960938 -48.234375 24.347656 -48.050781 C 24.347656 -48.140625 24.535156 -48.511719 24.8125 -49.066406 C 24.441406 -48.417969 24.164062 -48.050781 23.886719 -48.050781 C 26.664062 -53.695312 29.625 -59.34375 33.144531 -64.527344 C 33.050781 -64.34375 31.664062 -62.027344 31.753906 -62.027344 C 32.03125 -61.9375 35.457031 -66.660156 35.550781 -67.304688 C 35.550781 -67.675781 34.71875 -66.75 34.71875 -66.84375 C 35.273438 -67.398438 36.199219 -67.863281 36.476562 -68.601562 C 37.125 -70.453125 35.179688 -71.289062 33.792969 -71.566406 C 30.921875 -72.121094 27.683594 -71.75 25.832031 -69.34375 C 24.070312 -67.214844 22.773438 -64.714844 21.664062 -62.214844 C 21.109375 -61.101562 20.367188 -60.824219 19.628906 -59.808594 C 18.515625 -58.234375 17.777344 -56.382812 16.941406 -54.621094 C 16.203125 -53.050781 15.460938 -51.382812 14.8125 -49.714844 C 14.441406 -48.882812 14.441406 -48.234375 13.609375 -47.957031 C 12.777344 -47.585938 11.203125 -47.863281 10.277344 -47.773438 C 6.664062 -47.308594 3.148438 -47.492188 -0.464844 -47.125 C -2.316406 -47.03125 -4.167969 -47.03125 -5.925781 -46.382812 C -6.296875 -46.289062 -8.332031 -45.828125 -8.515625 -45.550781 C -9.074219 -44.53125 -6.851562 -44.4375 -6.386719 -44.347656 C -2.871094 -43.882812 1.574219 -43.511719 5.09375 -44.160156 C 7.5 -44.625 10 -44.4375 12.589844 -44.625 C 11.292969 -41.847656 10.277344 -38.882812 9.257812 -35.921875 L 8.148438 -32.679688 C 7.777344 -31.664062 6.574219 -29.71875 6.574219 -28.609375 C 6.574219 -28.421875 6.851562 -28.886719 7.035156 -29.347656 C 6.574219 -27.960938 6.019531 -26.570312 5.648438 -25.183594 C 5.648438 -25.273438 5.925781 -26.386719 5.832031 -26.386719 C 5.371094 -26.386719 3.519531 -20.738281 3.332031 -20.273438 C 2.40625 -17.496094 1.390625 -14.71875 0.925781 -11.757812 C 0.371094 -8.796875 -0.371094 -5.925781 -1.019531 -3.054688 C -1.390625 -1.574219 -1.757812 -0.183594 -1.945312 1.296875 C -2.128906 2.035156 -2.316406 2.871094 -2.316406 3.609375 C -2.316406 3.796875 -2.316406 5 -2.128906 4.628906 L -2.316406 6.480469 L -2.316406 5.09375 C -2.871094 5.738281 -2.316406 8.703125 -2.222656 9.257812 C -1.851562 11.109375 -0.925781 12.777344 0.742188 13.886719 C 2.222656 15 4.535156 16.015625 6.296875 15.183594 C 8.609375 14.074219 10.554688 11.480469 12.035156 9.628906 C 15.277344 5.832031 18.238281 1.851562 21.199219 -2.128906 C 23.886719 -5.832031 26.664062 -9.441406 28.976562 -13.332031 C 30.273438 -15.554688 32.773438 -17.589844 33.605469 -20.089844 C 34.070312 -21.292969 33.792969 -22.773438 32.3125 -22.496094 C 31.105469 -22.21875 29.441406 -18.980469 28.699219 -18.054688 C 25.367188 -13.886719 22.21875 -9.628906 18.886719 -5.460938 L 13.515625 1.109375 C 12.683594 2.035156 11.851562 3.054688 10.925781 3.980469 C 10.554688 4.445312 8.238281 6.296875 8.332031 6.851562 C 8.332031 7.035156 9.351562 6.203125 9.722656 5.925781 C 9.257812 6.480469 8.703125 6.945312 8.238281 7.40625 C 8.332031 7.3125 6.386719 8.425781 6.109375 8.238281 C 4.351562 7.5 5.925781 2.128906 6.203125 0.832031 C 7.871094 -6.664062 10.367188 -14.257812 12.867188 -21.480469 C 14.351562 -25.460938 15.832031 -29.253906 17.496094 -33.144531 C 18.332031 -35.089844 19.164062 -37.125 20.089844 -39.070312 L 21.386719 -42.585938 L 20.367188 -40.550781 C 21.015625 -42.21875 21.941406 -44.714844 22.496094 -44.808594 L 22.21875 -44.253906 C 22.40625 -44.53125 22.589844 -44.714844 22.773438 -44.808594 C 23.792969 -45.457031 26.386719 -44.808594 27.589844 -44.808594 C 28.421875 -44.808594 29.441406 -44.714844 30.273438 -44.996094 C 30.828125 -45.179688 30.644531 -45.457031 31.292969 -45.640625 C 32.402344 -45.828125 33.792969 -45.085938 34.996094 -45.457031 C 36.105469 -45.734375 37.679688 -46.753906 37.589844 -48.050781 Z M 19.996094 -42.773438 C 15.832031 -33.976562 12.683594 -24.535156 9.351562 -15.367188 C 7.777344 -11.203125 6.296875 -6.851562 5.277344 -2.5 L 4.8125 -0.742188 C 5.460938 -4.074219 6.203125 -7.3125 7.128906 -10.554688 C 9.164062 -17.683594 11.757812 -24.71875 14.8125 -31.476562 C 19.996094 -43.050781 24.625 -55.457031 32.03125 -65.917969 C 27.035156 -58.789062 23.699219 -50.640625 19.996094 -42.773438 Z M 26.109375 -51.9375 L 28.328125 -56.195312 C 27.867188 -56.105469 27.035156 -54.066406 26.109375 -51.9375 Z M 16.570312 -31.753906 C 15.925781 -29.996094 15.183594 -28.328125 14.441406 -26.664062 C 15.183594 -28.421875 15.832031 -30.273438 16.664062 -32.125 C 16.570312 -31.941406 16.570312 -31.847656 16.570312 -31.753906 Z M 24.902344 -49.253906 L 25.832031 -51.289062 C 25.550781 -50.550781 25.183594 -49.808594 24.902344 -49.253906 Z M 4.722656 9.074219 C 4.628906 9.074219 4.535156 8.980469 4.445312 8.886719 Z M 4.722656 9.074219 "/></g></g></g><g fill="#ffffff" fill-opacity="1"><g transform="translate(97.358765, 80.641587)"><g><path d="M 37.957031 -22.496094 C 37.402344 -24.902344 35.179688 -21.664062 34.71875 -21.109375 L 29.625 -14.257812 L 24.625 -7.683594 L 21.941406 -4.257812 C 21.664062 -3.886719 19.628906 -1.296875 19.8125 -1.296875 C 19.996094 -1.480469 20.273438 -1.480469 20.554688 -1.757812 C 19.164062 -0.277344 14.074219 4.351562 13.148438 3.242188 C 12.40625 2.316406 14.441406 -1.574219 14.71875 -2.5 C 15.738281 -5.183594 16.664062 -7.960938 17.777344 -10.554688 C 18.980469 -13.238281 20.367188 -15.925781 21.480469 -18.609375 C 22.589844 -21.480469 20.921875 -22.496094 18.238281 -23.144531 C 17.035156 -23.421875 15.554688 -23.421875 14.164062 -23.609375 C 14.164062 -23.515625 14.257812 -23.515625 14.257812 -23.515625 C 15.460938 -23.332031 17.21875 -23.238281 18.703125 -22.773438 C 16.480469 -23.421875 13.703125 -23.144531 11.941406 -23.609375 C 10.738281 -23.886719 10 -23.886719 10.183594 -25.273438 C 10.367188 -27.125 12.3125 -29.070312 12.960938 -30.828125 C 12.960938 -30.738281 12.3125 -29.070312 12.40625 -29.070312 C 12.867188 -28.886719 13.609375 -31.476562 13.609375 -31.847656 C 13.515625 -32.3125 12.40625 -33.699219 12.3125 -33.144531 L 12.5 -32.867188 C 8.054688 -35.921875 2.777344 -29.625 3.703125 -25.089844 C 3.886719 -24.441406 4.257812 -24.070312 4.535156 -23.332031 C 4.722656 -22.773438 4.535156 -22.125 5.09375 -21.386719 C 7.035156 -18.980469 10.554688 -18.886719 13.332031 -19.441406 C 12.867188 -18.792969 7.960938 -8.425781 8.238281 -8.332031 L 7.589844 -6.019531 C 7.5 -6.109375 7.871094 -6.851562 7.683594 -6.851562 C 7.035156 -6.945312 5.738281 -1.574219 5.648438 -1.109375 C 5.277344 1.109375 5.371094 3.054688 6.296875 5.09375 C 6.851562 6.386719 7.5 7.5 8.703125 8.238281 C 9.8125 8.980469 11.203125 9.351562 12.5 9.074219 C 12.960938 8.886719 14.71875 7.683594 14.257812 7.777344 L 14.90625 7.5 C 14.8125 7.589844 14.71875 7.683594 14.71875 7.777344 C 15 7.871094 19.257812 4.445312 19.8125 4.074219 C 22.773438 1.574219 25.183594 -1.480469 27.402344 -4.535156 C 29.625 -7.683594 31.941406 -10.832031 34.070312 -13.980469 C 35.089844 -15.460938 36.015625 -16.941406 36.753906 -18.515625 C 37.308594 -19.628906 38.234375 -21.199219 37.957031 -22.496094 Z M 10.277344 -11.386719 C 10.925781 -13.054688 11.664062 -14.628906 12.5 -16.203125 C 12.683594 -16.480469 13.980469 -19.8125 14.628906 -19.996094 C 14.164062 -19.71875 12.21875 -15.183594 11.757812 -14.351562 L 10 -10.277344 C 9.074219 -8.054688 8.054688 -5.738281 7.40625 -3.332031 C 8.054688 -6.109375 9.164062 -8.796875 10.277344 -11.386719 Z M 8.054688 6.386719 C 8.609375 7.128906 9.351562 7.871094 10.367188 8.238281 C 9.535156 7.960938 8.796875 7.5 8.238281 6.945312 C 8.332031 6.945312 8.332031 7.035156 8.332031 7.128906 C 7.777344 6.386719 7.035156 4.8125 6.945312 4.535156 C 6.664062 3.425781 6.574219 2.128906 6.664062 1.019531 C 6.664062 0.09375 6.757812 -0.648438 6.945312 -1.480469 L 6.945312 -1.390625 C 6.757812 -0.183594 6.664062 1.019531 6.757812 2.316406 L 6.757812 2.777344 C 6.664062 2.683594 6.664062 2.59375 6.664062 2.59375 C 6.664062 2.59375 6.664062 2.683594 6.757812 2.871094 L 6.757812 2.960938 L 7.128906 4.90625 L 6.851562 3.703125 C 7.035156 4.257812 7.5 5.277344 7.960938 6.296875 L 7.871094 6.203125 C 7.871094 6.296875 7.960938 6.386719 8.054688 6.480469 Z M 10.648438 -24.164062 C 11.109375 -23.792969 11.941406 -23.699219 12.777344 -23.609375 C 12.035156 -23.699219 11.386719 -23.886719 10.925781 -24.257812 C 10.925781 -24.257812 10.367188 -24.71875 10.277344 -24.902344 C 10.277344 -24.71875 10.460938 -24.257812 10.648438 -24.164062 Z M 20.367188 -16.941406 L 18.421875 -12.867188 L 20.367188 -17.035156 Z M 7.035156 -1.757812 C 7.035156 -1.667969 6.945312 -1.574219 6.945312 -1.480469 L 6.945312 -1.574219 C 6.945312 -1.667969 7.035156 -1.667969 7.035156 -1.757812 Z M 20.460938 -17.21875 L 20.460938 -17.128906 L 20.367188 -17.128906 Z M 20.460938 -17.21875 L 20.460938 -17.128906 L 20.367188 -17.128906 Z M 7.128906 -2.960938 C 7.128906 -3.054688 7.222656 -3.148438 7.222656 -3.332031 C 7.222656 -3.148438 7.128906 -3.054688 7.128906 -2.960938 Z M 7.5 5.554688 C 7.5 5.554688 7.589844 5.648438 7.589844 5.738281 C 7.589844 5.648438 7.5 5.648438 7.5 5.554688 Z M 10.367188 -25.089844 C 10.277344 -25.089844 10.277344 -24.996094 10.277344 -24.996094 Z M 10.367188 -25.089844 "/></g></g></g><g fill="#ffffff" fill-opacity="1"><g transform="translate(128.55714, 80.641587)"><g><path d="M 35.457031 -22.867188 C 35.457031 -22.773438 35.457031 -22.773438 35.367188 -22.867188 L 35.367188 -22.960938 C 33.882812 -25.460938 31.941406 -22.035156 31.105469 -20.832031 C 29.535156 -18.703125 28.050781 -16.664062 26.386719 -14.71875 C 24.996094 -13.054688 23.515625 -11.386719 22.40625 -9.628906 C 22.40625 -9.441406 22.21875 -8.980469 22.21875 -8.980469 C 21.847656 -8.425781 21.292969 -7.960938 20.832031 -7.40625 C 19.996094 -6.574219 19.164062 -5.648438 18.238281 -4.8125 C 16.851562 -3.519531 9.074219 3.796875 8.054688 -0.925781 C 7.5 -3.242188 8.238281 -6.109375 8.703125 -8.332031 C 8.980469 -9.535156 9.257812 -10.648438 9.441406 -11.851562 C 9.628906 -12.777344 9.351562 -13.703125 9.8125 -14.628906 C 10.089844 -15.183594 10.183594 -15.089844 10.832031 -15.277344 L 12.40625 -15.832031 C 13.425781 -16.203125 14.441406 -16.570312 15.367188 -17.128906 C 16.757812 -17.960938 18.054688 -18.980469 19.257812 -19.996094 C 22.125 -22.40625 25.183594 -25.273438 26.386719 -28.886719 C 27.035156 -30.921875 27.125 -33.144531 25.832031 -34.902344 C 24.625 -36.476562 22.589844 -37.308594 20.738281 -37.679688 C 15.738281 -38.605469 11.941406 -35.734375 9.074219 -31.941406 C 5.554688 -27.589844 3.054688 -22.21875 1.851562 -16.757812 C 1.203125 -14.074219 0.832031 -11.386719 0.371094 -8.609375 C -0.09375 -5.832031 -0.371094 -3.242188 1.109375 -0.648438 C 1.019531 -1.574219 0.832031 -2.40625 0.832031 -3.242188 C 0.832031 -3.703125 1.019531 -4.167969 1.019531 -4.535156 C 1.019531 -4.722656 0.832031 -5.277344 0.832031 -5.554688 C 0.832031 -6.386719 1.019531 -7.035156 1.203125 -7.871094 C 1.296875 -8.703125 1.203125 -9.535156 1.296875 -10.367188 C 1.390625 -11.292969 1.757812 -12.035156 2.128906 -12.867188 C 2.40625 -13.609375 2.5 -14.257812 2.777344 -15 C 3.054688 -15.644531 3.242188 -16.386719 3.519531 -17.128906 C 3.609375 -17.589844 4.074219 -18.144531 4.351562 -18.703125 C 4.074219 -17.867188 3.519531 -17.128906 3.332031 -16.386719 C 3.054688 -15.277344 3.242188 -14.074219 3.148438 -12.960938 C 2.960938 -11.757812 2.59375 -10.554688 2.40625 -9.257812 C 2.222656 -8.054688 1.667969 -6.945312 1.480469 -5.738281 C 1.296875 -4.628906 0.925781 -3.796875 1.019531 -2.683594 C 1.019531 -2.035156 1.109375 -1.390625 1.203125 -0.832031 C 1.296875 -0.09375 1.757812 0.371094 2.222656 0.925781 C 3.796875 2.777344 5.925781 4.257812 8.332031 4.90625 C 10 5.371094 11.480469 5.277344 13.054688 4.445312 C 15.277344 3.242188 17.21875 1.390625 18.886719 -0.371094 C 20.460938 -2.128906 21.664062 -4.074219 23.050781 -5.925781 C 24.347656 -7.589844 25.921875 -9.164062 27.21875 -10.832031 L 32.21875 -17.3125 L 35.089844 -21.109375 C 35.550781 -21.664062 35.828125 -22.125 35.457031 -22.867188 Z M 12.5 -21.847656 C 12.589844 -22.035156 12.589844 -22.125 12.589844 -22.125 C 13.980469 -25.089844 15 -28.238281 16.941406 -31.105469 L 18.609375 -33.328125 C 18.980469 -33.792969 19.628906 -34.625 20.273438 -34.808594 C 21.664062 -35.089844 22.035156 -32.679688 21.941406 -31.753906 L 21.570312 -29.8125 C 21.480469 -29.253906 21.664062 -28.886719 21.570312 -28.421875 C 21.386719 -27.867188 20.921875 -27.589844 20.644531 -27.125 L 19.070312 -25.089844 C 16.941406 -22.589844 14.257812 -20.460938 11.292969 -18.886719 C 11.757812 -19.90625 12.035156 -20.921875 12.5 -21.847656 Z M 12.5 -21.847656 "/></g></g></g><g fill="#ffffff" fill-opacity="1"><g transform="translate(157.348522, 80.641587)"><g><path d="M 47.125 -22.3125 C 47.03125 -24.347656 45.363281 -22.589844 44.808594 -21.847656 C 43.605469 -20.089844 42.496094 -18.238281 41.382812 -16.480469 C 38.882812 -12.683594 36.382812 -8.886719 33.515625 -5.277344 C 23.976562 6.480469 30.644531 -14.441406 29.902344 -14.257812 C 29.535156 -14.164062 29.253906 -12.777344 29.164062 -12.5 C 29.902344 -15.832031 31.292969 -19.8125 33.050781 -23.050781 C 34.070312 -25.089844 35.273438 -26.757812 33.421875 -28.976562 C 29.996094 -33.144531 26.015625 -29.347656 23.792969 -26.476562 C 22.867188 -29.996094 21.015625 -35.179688 16.480469 -35.179688 C 14.441406 -35.179688 13.238281 -34.164062 11.851562 -32.957031 C 11.015625 -32.402344 10.367188 -32.3125 9.628906 -31.664062 C 8.425781 -30.828125 7.589844 -29.535156 6.757812 -28.421875 C 3.609375 -23.792969 1.390625 -17.960938 0.371094 -12.589844 C -0.09375 -10 -0.277344 -7.128906 0.464844 -4.535156 C 0.925781 -3.054688 2.59375 0.277344 4.722656 0 C 4.8125 0 4.628906 -0.09375 4.351562 -0.277344 C 5.648438 0.09375 7.128906 -0.09375 8.238281 -0.832031 C 8.332031 -0.648438 7.222656 -0.183594 7.222656 -0.183594 C 8.238281 1.390625 15.832031 -7.777344 16.386719 -8.609375 C 17.589844 -10.277344 18.421875 -12.035156 19.535156 -13.792969 C 20.367188 -15.089844 21.664062 -16.757812 22.589844 -18.144531 C 22.496094 -17.496094 22.496094 -16.664062 22.496094 -16.664062 C 20.832031 -11.386719 19.257812 -5.648438 21.480469 -0.183594 C 22.496094 2.59375 24.996094 5.183594 28.144531 4.628906 C 30.921875 4.167969 33.238281 1.480469 34.902344 -0.648438 C 36.941406 -3.054688 38.699219 -5.738281 40.457031 -8.515625 C 41.9375 -11.015625 43.328125 -13.515625 44.53125 -16.292969 C 45.273438 -18.054688 47.308594 -20.183594 47.125 -22.3125 Z M 20.554688 -21.664062 C 20.089844 -21.015625 19.628906 -20.367188 19.257812 -19.71875 L 16.851562 -16.292969 C 15.277344 -13.980469 13.609375 -11.757812 11.851562 -9.628906 C 11.386719 -8.980469 9.164062 -6.109375 8.238281 -6.386719 C 6.851562 -6.851562 8.332031 -11.664062 8.515625 -12.40625 C 8.796875 -13.703125 13.703125 -27.960938 15 -28.238281 C 13.332031 -28.328125 7.960938 -11.574219 7.683594 -10.183594 C 8.425781 -14.71875 10.089844 -19.164062 11.941406 -23.332031 C 12.960938 -25.460938 15.277344 -31.105469 18.332031 -31.105469 C 19.996094 -31.105469 20.367188 -27.683594 20.644531 -26.570312 C 20.554688 -26.757812 19.71875 -29.441406 19.628906 -29.347656 C 19.164062 -28.976562 21.015625 -23.886719 21.015625 -23.144531 C 21.015625 -22.40625 21.015625 -22.40625 20.554688 -21.664062 Z M 22.683594 -17.128906 C 22.683594 -17.128906 22.960938 -18.421875 23.050781 -18.703125 L 23.515625 -19.347656 Z M 21.292969 -22.867188 L 21.292969 -23.792969 C 21.570312 -23.421875 21.570312 -23.144531 21.292969 -22.867188 Z M 21.292969 -22.867188 "/></g></g></g><g fill="#ffffff" fill-opacity="1"><g transform="translate(197.712007, 80.641587)"><g><path d="M 56.289062 -22.21875 C 56.289062 -22.21875 56.382812 -22.125 56.289062 -22.3125 C 55.640625 -24.347656 51.566406 -18.792969 51.105469 -18.238281 C 48.699219 -15.367188 46.289062 -12.40625 43.789062 -9.628906 C 42.773438 -8.515625 39.160156 -3.519531 37.402344 -3.886719 C 36.570312 -4.074219 37.21875 -8.515625 37.21875 -8.515625 C 37.03125 -8.332031 36.941406 -8.148438 36.847656 -7.960938 C 37.589844 -11.480469 39.71875 -15.644531 41.199219 -19.164062 C 42.773438 -23.144531 45.085938 -28.328125 43.882812 -32.773438 C 42.496094 -37.867188 37.21875 -35.273438 34.71875 -32.867188 C 33.792969 -31.941406 26.109375 -21.941406 26.199219 -21.292969 L 28.050781 -23.792969 C 26.570312 -21.480469 25.183594 -19.257812 24.070312 -16.941406 C 24.996094 -20.183594 25.921875 -23.515625 27.035156 -26.757812 C 27.867188 -28.976562 29.253906 -31.292969 29.902344 -33.605469 C 30.644531 -36.570312 28.050781 -40.644531 24.71875 -40.179688 C 22.3125 -39.902344 20.273438 -37.125 19.070312 -35.179688 C 17.589844 -32.773438 15.832031 -30.550781 14.351562 -28.238281 C 12.589844 -25.367188 11.109375 -22.21875 9.628906 -19.257812 C 8.332031 -16.851562 7.683594 -14.074219 6.296875 -11.851562 C 6.480469 -12.867188 6.109375 -13.609375 6.109375 -14.535156 C 6.109375 -15.367188 6.480469 -16.386719 6.664062 -17.21875 C 6.945312 -18.515625 7.683594 -19.628906 7.960938 -20.921875 C 8.148438 -21.570312 7.960938 -21.847656 8.148438 -22.496094 C 8.238281 -22.960938 8.703125 -23.515625 8.980469 -23.886719 C 9.628906 -24.8125 10.460938 -25.644531 11.015625 -26.570312 C 11.109375 -26.757812 11.292969 -26.941406 11.292969 -27.125 C 11.664062 -28.421875 10.738281 -28.886719 10.277344 -29.535156 C 9.8125 -30.089844 9.351562 -31.292969 8.609375 -31.941406 C 8.054688 -32.402344 7.128906 -32.957031 6.480469 -32.679688 C 5.648438 -32.3125 6.019531 -31.847656 5.738281 -31.386719 C 5.371094 -30.460938 4.628906 -29.71875 4.167969 -28.886719 C 3.425781 -27.3125 2.777344 -25.738281 2.316406 -24.164062 C 1.203125 -20.921875 -0.09375 -17.589844 0.09375 -14.164062 C 0.183594 -11.574219 -0.554688 -9.441406 1.390625 -7.128906 C 2.316406 -6.019531 5.925781 -3.609375 6.851562 -5.277344 C 6.945312 -5.460938 7.035156 -6.203125 7.035156 -6.480469 C 7.3125 -7.40625 7.960938 -8.238281 8.332031 -9.164062 C 9.257812 -11.015625 10.089844 -12.960938 11.109375 -14.90625 C 13.703125 -19.8125 15.644531 -24.535156 18.703125 -29.253906 C 19.628906 -30.644531 20.738281 -32.03125 21.847656 -33.328125 C 22.125 -33.605469 23.515625 -35.550781 23.699219 -35.457031 C 25.183594 -35.367188 22.21875 -29.71875 21.941406 -28.699219 C 20.738281 -25.550781 18.609375 -22.3125 18.238281 -18.980469 C 18.144531 -17.867188 18.421875 -17.496094 18.144531 -16.480469 C 17.867188 -15.367188 17.40625 -14.164062 17.496094 -12.960938 C 17.683594 -11.851562 18.144531 -10.832031 18.980469 -10.089844 C 21.941406 -7.222656 23.144531 -10.554688 24.441406 -12.777344 C 26.015625 -15.367188 27.496094 -19.070312 29.441406 -21.015625 C 32.496094 -23.976562 34.070312 -27.960938 37.125 -30.828125 C 36.660156 -29.8125 34.070312 -23.515625 34.164062 -23.421875 C 34.347656 -23.609375 34.441406 -23.792969 34.53125 -23.976562 C 34.164062 -22.960938 33.792969 -22.035156 33.515625 -21.109375 C 33.328125 -21.199219 33.699219 -21.941406 33.605469 -21.941406 C 33.050781 -22.035156 31.386719 -16.851562 31.292969 -16.480469 C 30.644531 -14.628906 30.367188 -12.867188 30.367188 -10.925781 C 30.367188 -9.164062 30.367188 -7.40625 30.644531 -5.554688 C 30.828125 -4.445312 31.105469 -3.242188 31.664062 -2.222656 C 31.847656 -1.757812 33.144531 -0.464844 33.144531 -0.648438 C 33.238281 -0.464844 33.238281 -0.277344 33.421875 -0.183594 L 33.328125 -0.277344 C 33.144531 0.464844 37.03125 1.757812 37.679688 1.667969 C 40.921875 1.574219 44.160156 -2.777344 45.921875 -5.09375 C 48.511719 -8.238281 50.828125 -11.664062 53.140625 -15 C 54.34375 -16.757812 56.84375 -19.8125 56.289062 -22.21875 Z M 23.050781 -28.328125 L 23.144531 -28.328125 C 23.050781 -28.238281 22.960938 -28.050781 22.960938 -28.050781 C 21.847656 -25.738281 21.292969 -23.050781 20.367188 -20.554688 C 19.628906 -18.703125 18.703125 -16.480469 18.515625 -14.441406 C 18.515625 -16.570312 19.164062 -19.070312 19.8125 -20.921875 C 20.554688 -23.144531 21.664062 -25.273438 22.589844 -27.402344 C 22.960938 -28.144531 25.183594 -33.882812 24.8125 -35.367188 C 25.367188 -34.070312 23.699219 -29.71875 23.144531 -28.328125 L 23.144531 -28.421875 Z M 23.050781 -28.328125 "/></g></g></g></svg>